#!OML:ASF H:\IndianDance\Patient Classification 1\Patient 1\Session 1\dancer.ASF
:FULLY-SPECIFIED
:DEGREES
2857
root 10.5689 15.261 -1.87762 -530.25 -16.3185 -175.751
lowerback 5.65991 2.5066 1.41542
upperback -5.9271 3.48094 2.60655
thorax -9.54469 1.59011 1.51626
lowerneck -20.2761 5.49591 4.7617
upperneck 31.9209 5.97016 -2.47902
head 14.6696 2.31326 -0.853022
rclavicle -5.75233e-015 4.77083e-015
rhumerus -43.4061 56.11 -82.8559
rradius 100.762
rwrist -74.0258
rhand 4.26301 -5.0928
rfingers 7.12502
rthumb 29.6668 -32.7399
lclavicle -5.75233e-015 4.77083e-015
lhumerus -16.1185 -37.521 70.8582
lradius 47.1591
lwrist 54.7407
lhand -33.7284 406.476
lfingers 7.12502
lthumb -6.91739 76.3427
rfemur -25.3157 -21.2915 28.9353
rtibia 45.469
rfoot -21.8458 -6.8867
rtoes -2.78309
lfemur -45.8151 20.7808 -21.9196
ltibia 35.8072
lfoot -25.7551 21.0751
ltoes -5.54712
2858
root 10.5757 15.2482 -1.90958 -530.177 -16.9302 -175.546
lowerback 5.58408 2.32545 1.49335
upperback -5.94691 3.24798 2.83545
thorax -9.52722 1.47531 1.75237
lowerneck -20.3961 5.17336 4.50514
upperneck 31.9024 5.5919 -2.50451
head 14.6599 2.11597 -0.889511
rclavicle 3.27001e-014 1.35174e-014
rhumerus -43.4215 56.4099 -82.8559
rradius 101.166
rwrist -74.4579
rhand 3.36005 -5.42208
rfingers 7.12502
rthumb 28.8046 -33.2193
lclavicle 3.27001e-014 1.35174e-014
lhumerus -16.7586 -39.2676 71.1002
lradius 48.9483
lwrist 56.0226
lhand -33.4338 406.516
lfingers 7.12502
lthumb -6.63299 76.3922
rfemur -25.0366 -21.3094 29.3042
rtibia 44.9516
rfoot -22.1687 -7.50875
rtoes -2.71735
lfemur -46.5052 20.6899 -21.9414
ltibia 36.8983
lfoot -25.8348 20.8276
ltoes -5.83992
2859
root 10.5797 15.2346 -1.94124 -530.151 -17.5446 -175.309
lowerback 5.52939 2.14437 1.60576
upperback -5.95212 3.01922 3.08178
thorax -9.50435 1.36053 1.98644
lowerneck -20.5039 4.84721 4.26047
upperneck 31.8623 5.21526 -2.55496
head 14.6403 1.91819 -0.937755
rclavicle 5.66909e-014 5.52621e-014
rhumerus -43.4066 56.7296 -82.7984
rradius 101.591
rwrist -74.8649
rhand 2.43936 -5.75598
rfingers 7.12502
rthumb 27.9247 -33.6996
lclavicle 5.66909e-014 5.52621e-014
lhumerus -17.3949 -40.9249 71.3589
lradius 50.7363
lwrist 57.2336
lhand -33.1524 406.515
lfingers 7.12502
lthumb -6.36138 76.3992
rfemur -24.8327 -21.4074 29.6702
rtibia 44.624
rfoot -22.4033 -7.99041
rtoes -2.72688
lfemur -47.2204 20.6205 -21.9627
ltibia 38.1352
lfoot -25.8413 20.5296
ltoes -6.22057
2860
root 10.5805 15.2203 -1.97298 -530.177 -18.1378 -175.031
lowerback 5.49373 1.97097 1.75473
upperback -5.94155 2.80471 3.34707
thorax -9.47408 1.25039 2.21778
lowerneck -20.598 4.51762 4.0268
upperneck 31.8025 4.83825 -2.62428
head 14.6108 1.71973 -0.995413
rclavicle -1.89591e-014 -9.54166e-015
rhumerus -43.3656 57.0697 -82.6918
rradius 102.031
rwrist -75.2346
rhand 1.53931 -6.08779
rfingers 7.12502
rthumb 27.0639 -34.1683
lclavicle -1.89591e-014 -9.54166e-015
lhumerus -18.029 -42.5102 71.6374
lradius 52.5179
lwrist 58.3921
lhand -32.8773 406.476
lfingers 7.12502
lthumb -6.09575 76.3682
rfemur -24.6914 -21.5817 30.04
rtibia 44.481
rfoot -22.5638 -8.32638
rtoes -2.82374
lfemur -47.9519 20.6185 -21.999
ltibia 39.5239
lfoot -25.7689 20.1709
ltoes -6.72119
2861
root 10.5778 15.2055 -2.0052 -530.255 -18.6907 -174.717
lowerback 5.47019 1.80661 1.93069
upperback -5.91428 2.60467 3.63432
thorax -9.43226 1.1456 2.45521
lowerneck -20.6751 4.19049 3.79506
upperneck 31.7293 4.46969 -2.70557
head 14.5732 1.52372 -1.05651
rclavicle 1.74806e-014 6.67916e-014
rhumerus -43.303 57.4481 -82.5412
rradius 102.487
rwrist -75.5901
rhand 0.621844 -6.37012
rfingers 7.12502
rthumb 26.1859 -34.5839
lclavicle 1.74806e-014 6.67916e-014
lhumerus -18.6715 -44.0173 71.9466
lradius 54.283
lwrist 59.5103
lhand -32.6055 406.405
lfingers 7.12502
lthumb -5.83332 76.3048
rfemur -24.5945 -21.8226 30.4061
rtibia 44.5022
rfoot -22.6622 -8.53419
rtoes -3.06773
lfemur -48.6828 20.7108 -22.0717
ltibia 41.0602
lfoot -25.6431 19.7367
ltoes -7.25261
2862
root 10.5716 15.1904 -2.03826 -530.379 -19.1891 -174.384
lowerback 5.4518 1.65741 2.11109
upperback -5.87159 2.42435 3.93642
thorax -9.3771 1.05007 2.7032
lowerneck -20.7393 3.86492 3.57108
upperneck 31.6519 4.10362 -2.79469
head 14.5323 1.32855 -1.12145
rclavicle -2.68856e-014 -2.06736e-014
rhumerus -43.2209 57.8472 -82.3518
rradius 102.947
rwrist -75.9321
rhand -0.237113 -6.59464
rfingers 7.12502
rthumb 25.3632 -34.9278
lclavicle -2.68856e-014 -2.06736e-014
lhumerus -19.3226 -45.4552 72.2907
lradius 56.0244
lwrist 60.5907
lhand -32.3258 406.307
lfingers 7.12502
lthumb -5.56327 76.2138
rfemur -24.5261 -22.1135 30.7488
rtibia 44.6636
rfoot -22.7116 -8.60775
rtoes -3.39226
lfemur -49.3921 20.9171 -22.2141
ltibia 42.726
lfoot -25.5071 19.2107
ltoes -7.6527
2863
root 10.562 15.1751 -2.0725 -530.533 -19.6262 -174.056
lowerback 5.42947 1.52589 2.26933
upperback -5.8157 2.26385 4.24456
thorax -9.30633 0.965508 2.96738
lowerneck -20.7912 3.53761 3.35412
upperneck 31.5754 3.73238 -2.88506
head 14.4898 1.13154 -1.18888
rclavicle 2.4699e-014 -5.64548e-014
rhumerus -43.1279 58.2561 -82.1323
rradius 103.415
rwrist -76.2899
rhand -1.08913 -6.705
rfingers 7.12502
rthumb 24.5468 -35.1515
lclavicle 2.4699e-014 -5.64548e-014
lhumerus -19.9809 -46.8408 72.6685
lradius 57.7367
lwrist 61.6353
lhand -32.0423 406.199
lfingers 7.12502
lthumb -5.28959 76.1132
rfemur -24.4775 -22.4406 31.0429
rtibia 44.9465
rfoot -22.7133 -8.57501
rtoes -3.88857
lfemur -50.0546 21.2424 -22.4634
ltibia 44.4895
lfoot -25.337 18.6973
ltoes -8.09482
2864
root 10.5494 15.1598 -2.10817 -530.707 -20.0003 -173.753
lowerback 5.3983 1.41383 2.38787
upperback -5.74826 2.12356 4.55215
thorax -9.21916 0.893199 3.25044
lowerneck -20.8408 3.2111 3.13575
upperneck 31.5142 3.35824 -2.96625
head 14.454 0.933584 -1.25282
rclavicle 6.85807e-015 -1.98785e-014
rhumerus -43.0297 58.6585 -81.8842
rradius 103.89
rwrist -76.6705
rhand -1.90581 -6.70064
rfingers 7.12502
rthumb 23.7637 -35.2512
lclavicle 6.85807e-015 -1.98785e-014
lhumerus -20.6419 -48.1812 73.0793
lradius 59.413
lwrist 62.6343
lhand -31.7313 406.071
lfingers 7.12502
lthumb -4.98931 75.9927
rfemur -24.4413 -22.7895 31.2667
rtibia 45.3397
rfoot -22.6746 -8.43946
rtoes -4.52126
lfemur -50.6312 21.6661 -22.8254
ltibia 46.3031
lfoot -25.1829 18.2049
ltoes -8.37738
2865
root 10.534 15.1441 -2.14535 -530.894 -20.3139 -173.491
lowerback 5.36118 1.32305 2.4513
upperback -5.67321 2.00493 4.85235
thorax -9.12191 0.834793 3.55356
lowerneck -20.8819 2.88096 2.91474
upperneck 31.4653 2.97311 -3.03255
head 14.4218 0.732017 -1.31227
rclavicle 1.36913e-014 -2.62396e-014
rhumerus -42.9423 59.0375 -81.6188
rradius 104.376
rwrist -77.0667
rhand -2.68781 -6.57431
rfingers 7.12502
rthumb 23.0135 -35.2204
lclavicle 1.36913e-014 -2.62396e-014
lhumerus -21.3086 -49.4947 73.5256
lradius 61.0601
lwrist 63.6055
lhand -31.3991 405.944
lfingers 7.12502
lthumb -4.66851 75.8723
rfemur -24.4168 -23.147 31.4036
rtibia 45.8419
rfoot -22.6021 -8.20382
rtoes -5.24204
lfemur -51.0797 22.1617 -23.2953
ltibia 48.1073
lfoot -25.0734 17.7489
ltoes -8.36228
